<svg xmlns="http://www.w3.org/2000/svg" width="980" height="520" viewBox="0 0 980 520">
<rect width="100%" height="100%" fill="white"/>
<text x="490" y="32" text-anchor="middle" font-family="sans-serif" font-size="20">Certificate distribution</text>
<line x1="90" y1="410.0" x2="940" y2="410.0" stroke="#e2e8f0"/>
<text x="82" y="414.0" text-anchor="end" font-family="sans-serif" font-size="11">0.0</text>
<line x1="90" y1="342.0" x2="940" y2="342.0" stroke="#e2e8f0"/>
<text x="82" y="346.0" text-anchor="end" font-family="sans-serif" font-size="11">8.4</text>
<line x1="90" y1="274.0" x2="940" y2="274.0" stroke="#e2e8f0"/>
<text x="82" y="278.0" text-anchor="end" font-family="sans-serif" font-size="11">16.8</text>
<line x1="90" y1="206.0" x2="940" y2="206.0" stroke="#e2e8f0"/>
<text x="82" y="210.0" text-anchor="end" font-family="sans-serif" font-size="11">25.2</text>
<line x1="90" y1="138.0" x2="940" y2="138.0" stroke="#e2e8f0"/>
<text x="82" y="142.0" text-anchor="end" font-family="sans-serif" font-size="11">33.6</text>
<line x1="90" y1="70.0" x2="940" y2="70.0" stroke="#e2e8f0"/>
<text x="82" y="74.0" text-anchor="end" font-family="sans-serif" font-size="11">42.0</text>
<rect x="112.0" y="410.0" width="72" height="0.0" fill="#2f855a"><title>Proved: 0</title></rect>
<rect x="112.0" y="410.0" width="72" height="0.0" fill="#d69e2e"><title>Unknown: 0</title></rect>
<rect x="112.0" y="410.0" width="72" height="0.0" fill="#c53030"><title>Unsupported: 0</title></rect>
<text x="148.0" y="435" text-anchor="middle" font-family="sans-serif" font-size="11">MutualExclusive</text>
<text x="148.0" y="452" text-anchor="middle" fill="#718096" font-family="sans-serif" font-size="10">N/A (0 candidates)</text>
<rect x="277.0" y="410.0" width="72" height="0.0" fill="#2f855a"><title>Proved: 0</title></rect>
<rect x="277.0" y="410.0" width="72" height="0.0" fill="#d69e2e"><title>Unknown: 0</title></rect>
<rect x="277.0" y="410.0" width="72" height="0.0" fill="#c53030"><title>Unsupported: 0</title></rect>
<text x="313.0" y="435" text-anchor="middle" font-family="sans-serif" font-size="11">MustPrecede</text>
<text x="313.0" y="452" text-anchor="middle" fill="#718096" font-family="sans-serif" font-size="10">N/A (0 candidates)</text>
<rect x="442.0" y="410.0" width="72" height="0.0" fill="#2f855a"><title>Proved: 0</title></rect>
<rect x="442.0" y="410.0" width="72" height="0.0" fill="#d69e2e"><title>Unknown: 0</title></rect>
<rect x="442.0" y="410.0" width="72" height="0.0" fill="#c53030"><title>Unsupported: 0</title></rect>
<text x="478.0" y="435" text-anchor="middle" font-family="sans-serif" font-size="11">CoEmissionIndependent</text>
<text x="478.0" y="452" text-anchor="middle" fill="#718096" font-family="sans-serif" font-size="10">N/A (0 candidates)</text>
<rect x="607.0" y="151.0" width="72" height="259.0" fill="#2f855a"><title>Proved: 32</title></rect>
<text x="643.0" y="284.5" text-anchor="middle" fill="white" font-family="sans-serif" font-size="11">32</text>
<rect x="607.0" y="70.0" width="72" height="81.0" fill="#d69e2e"><title>Unknown: 10</title></rect>
<text x="643.0" y="114.5" text-anchor="middle" fill="white" font-family="sans-serif" font-size="11">10</text>
<rect x="607.0" y="70.0" width="72" height="0.0" fill="#c53030"><title>Unsupported: 0</title></rect>
<text x="643.0" y="435" text-anchor="middle" font-family="sans-serif" font-size="11">WorkBound</text>
<rect x="772.0" y="296.7" width="72" height="113.3" fill="#2f855a"><title>Proved: 14</title></rect>
<text x="808.0" y="357.3" text-anchor="middle" fill="white" font-family="sans-serif" font-size="11">14</text>
<rect x="772.0" y="296.7" width="72" height="0.0" fill="#d69e2e"><title>Unknown: 0</title></rect>
<rect x="772.0" y="296.7" width="72" height="0.0" fill="#c53030"><title>Unsupported: 0</title></rect>
<text x="808.0" y="435" text-anchor="middle" font-family="sans-serif" font-size="11">DepthBound</text>
<rect x="290" y="475" width="14" height="14" fill="#2f855a"/>
<text x="310" y="487" font-family="sans-serif" font-size="12">Proved</text>
<rect x="435" y="475" width="14" height="14" fill="#d69e2e"/>
<text x="455" y="487" font-family="sans-serif" font-size="12">Unknown</text>
<rect x="580" y="475" width="14" height="14" fill="#c53030"/>
<text x="600" y="487" font-family="sans-serif" font-size="12">Unsupported</text>
</svg>
